<svg width="903" height="1075" viewBox="0 0 903 1075" fill="none" xmlns="http://www.w3.org/2000/svg">
<path d="M458.176 574.57L0.956055 828.494L151.23 909.831L458.176 727.657L458.176 574.57Z" fill="#C3BBF8" fill-opacity="0.85"/>
<path d="M455.527 556.87L900.401 819.554L753.279 904.042L382.423 683.489L455.527 556.87Z" fill="#D6D0FF" fill-opacity="0.85"/>
<path d="M439.666 452.021V80.0061L293.459 167.128V452.021H439.666Z" fill="#E1DDFF" fill-opacity="0.85"/>
<path d="M439.666 452.021V80.0061L585.873 154.649V452.021H439.666Z" fill="#C3BBF8"/>
<path d="M143.801 417.532L0.956055 341.089L0.958854 828.494L143.801 748.212V417.532Z" fill="#8476E0" fill-opacity="0.85"/>
<path d="M757.556 401.82L900.4 315.483V819.553L757.556 735.49V401.82Z" fill="#CBC2FF" fill-opacity="0.85"/>
<path d="M0.959473 828.495L456.271 1074.96V937.362L143.801 748.211L0.959473 828.495Z" fill="#7665E7" fill-opacity="0.85"/>
<path d="M900.4 819.552L456.276 1074.96V937.357L757.556 735.972L900.4 819.552Z" fill="#E1DDFF" fill-opacity="0.85"/>
<path d="M310.007 995.634V506.179L456.215 584.271V1074.92L310.007 995.634Z" fill="#7B66FF"/>
<path d="M602.483 990.874V495.765L456.277 584.273V1075L602.483 990.874Z" fill="#D6D0FF"/>
<path d="M0.98303 341.153L439.703 80.0011L576.438 149.927L143.86 417.533L0.98303 341.153Z" fill="#D7D0FF" fill-opacity="0.75"/>
<path d="M900.558 315.283L439.67 79.9771L312.89 155.654L757.748 401.518L900.558 315.283Z" fill="#E1DEFB" fill-opacity="0.85"/>
<path fill-rule="evenodd" clip-rule="evenodd" d="M126.127 269.037L0.466797 341.09L456.224 584.258L900.608 315.289L766.086 246.774L439.698 438.594L126.127 269.037Z" fill="#8573FF"/>
</svg>
